<svg width="25" height="27" viewBox="0 0 25 27" fill="none" xmlns="http://www.w3.org/2000/svg">
<line x1="0.5" y1="1.5" x2="0.5" y2="26.5" stroke="black" stroke-linecap="round"/>
<line x1="0.5" y1="26.5" x2="14.9839" y2="26.5" stroke="black" stroke-linecap="round"/>
<line x1="0.5" y1="1.33871" x2="14.9839" y2="1.33871" stroke="black" stroke-linecap="round"/>
<line x1="15.2097" y1="1.5" x2="15.2097" y2="8.8871" stroke="black" stroke-linecap="round"/>
<path d="M8.51611 13.9193C8.23997 13.9193 8.01611 14.1432 8.01611 14.4193C8.01611 14.6955 8.23997 14.9193 8.51611 14.9193V13.9193ZM24.3535 14.7729C24.5488 14.5776 24.5488 14.2611 24.3535 14.0658L21.1716 10.8838C20.9763 10.6885 20.6597 10.6885 20.4645 10.8838C20.2692 11.0791 20.2692 11.3957 20.4645 11.5909L23.2929 14.4193L20.4645 17.2478C20.2692 17.443 20.2692 17.7596 20.4645 17.9549C20.6597 18.1501 20.9763 18.1501 21.1716 17.9549L24.3535 14.7729ZM8.51611 14.9193H24V13.9193H8.51611V14.9193Z" fill="black"/>
<line x1="15.2097" y1="19.1129" x2="15.2097" y2="26.5" stroke="black" stroke-linecap="round"/>
</svg>
